HIERARCHY
ROOT joint_0
{
	OFFSET 0.000000 0.000000 0.000000
	CHANNELS 6 Xposition Yposition Zposition Zrotation Yrotation Xrotation 
	JOINT joint_1
	{
		OFFSET 5.091736 1.614004 124.993042
		CHANNELS 3 Zrotation Yrotation Xrotation
		JOINT joint_2
		{
			OFFSET -7.754517 4.363039 113.797974
			CHANNELS 3 Zrotation Yrotation Xrotation
			JOINT joint_3
			{
				OFFSET -8.706238 5.370684 113.558960
				CHANNELS 3 Zrotation Yrotation Xrotation
				JOINT joint_4
				{
					OFFSET 2.800659 5.843341 158.209106
					CHANNELS 3 Zrotation Yrotation Xrotation
					JOINT joint_5
					{
						OFFSET 20.525452 8.617594 92.185913
						CHANNELS 3 Zrotation Yrotation Xrotation
						End Site
						{
							OFFSET 0.000000 0.000000 0.000000
						}
					}
				}
				JOINT joint_6
				{
					OFFSET -4.183167 -30.671114 90.057007
					CHANNELS 3 Zrotation Yrotation Xrotation
					JOINT joint_7
					{
						OFFSET -24.729675 -138.200195 -6.097900
						CHANNELS 3 Zrotation Yrotation Xrotation
						JOINT joint_8
						{
							OFFSET 16.966858 -51.567780 -315.633057
							CHANNELS 3 Zrotation Yrotation Xrotation
							JOINT joint_9
							{
								OFFSET 129.835388 -40.459091 176.646973
								CHANNELS 3 Zrotation Yrotation Xrotation
								End Site
								{
									OFFSET 0.000000 0.000000 0.000000
								}
							}
						}
					}
				}
				JOINT joint_10
				{
					OFFSET 7.338745 37.199406 87.346069
					CHANNELS 3 Zrotation Yrotation Xrotation
					JOINT joint_11
					{
						OFFSET 20.327698 137.488367 -20.779053
						CHANNELS 3 Zrotation Yrotation Xrotation
						JOINT joint_12
						{
							OFFSET 150.763062 48.206573 -278.419922
							CHANNELS 3 Zrotation Yrotation Xrotation
							JOINT joint_13
							{
								OFFSET 12.571289 -162.355251 152.253906
								CHANNELS 3 Zrotation Yrotation Xrotation
								End Site
								{
									OFFSET 0.000000 0.000000 0.000000
								}
							}
						}
					}
				}
			}
		}
	}
	JOINT joint_14
	{
		OFFSET -7.600342 -77.970001 -95.010986
		CHANNELS 3 Zrotation Yrotation Xrotation
		JOINT joint_15
		{
			OFFSET -2.666199 -21.455009 -443.700989
			CHANNELS 3 Zrotation Yrotation Xrotation
			JOINT joint_16
			{
				OFFSET -22.487976 -19.310196 -481.059006
				CHANNELS 3 Zrotation Yrotation Xrotation
				JOINT joint_17
				{
					OFFSET 177.776611 65.723053 -82.445997
					CHANNELS 3 Zrotation Yrotation Xrotation
					End Site
					{
						OFFSET 0.000000 0.000000 0.000000
					}
				}
			}
		}
	}
	JOINT joint_18
	{
		OFFSET 17.063904 75.900681 -95.447021
		CHANNELS 3 Zrotation Yrotation Xrotation
		JOINT joint_19
		{
			OFFSET -21.510803 8.101997 -443.629944
			CHANNELS 3 Zrotation Yrotation Xrotation
			JOINT joint_20
			{
				OFFSET -7.473022 -28.501774 -481.230011
				CHANNELS 3 Zrotation Yrotation Xrotation
				JOINT joint_21
				{
					OFFSET 177.760559 -64.115177 -83.737001
					CHANNELS 3 Zrotation Yrotation Xrotation
					End Site
					{
						OFFSET 0.000000 0.000000 0.000000
					}
				}
			}
		}
	}
}
MOTION
Frames: 17
Frame Time: 0.016667
-100.884979 -48.679871 1120.233032 20.143363 -1.042243 0.511346 0.386059 -0.055501 2.937792 0.192805 0.036239 -0.548991 0.284610 0.022473 0.459330 -0.482535 2.060486 1.784609 0.000000 0.000000 0.000000 1.627751 -0.406972 3.892708 11.573893 0.118287 -2.051920 -179.222270 37.423125 177.817530 0.000000 0.000000 0.000000 -5.203745 19.858673 -1.876475 -20.248393 4.658486 1.702571 50.873262 -21.648204 115.488304 0.000000 0.000000 0.000000 -11.549054 4.323856 -0.806316 -11.278152 -0.482513 -0.330566 -10.976000 -5.217646 -3.132261 0.000000 0.000000 0.000000 -6.173791 -4.014795 2.167508 -6.063575 8.272415 5.094977 -4.932533 -5.834512 -4.378813 0.000000 0.000000 0.000000 
-100.981125 -48.923649 1120.292969 20.056606 -1.032544 0.521419 0.391442 -0.096819 2.924273 0.196223 0.040047 -0.547111 0.288381 0.012457 0.457698 -0.481976 2.054903 1.780355 0.000000 0.000000 0.000000 1.638007 -0.356025 3.911506 11.610550 0.044971 -1.968912 -179.243947 37.467332 177.812702 0.000000 0.000000 0.000000 -5.199668 19.905350 -1.869547 -20.241829 4.705258 1.676901 50.841180 -21.670940 115.502028 0.000000 0.000000 0.000000 -11.524126 4.311335 -0.829227 -11.253501 -0.508875 -0.282356 -10.951208 -5.175515 -3.137088 0.000000 0.000000 0.000000 -6.145588 -3.937543 2.259433 -6.028490 8.086980 4.958837 -4.925443 -5.742782 -4.342764 0.000000 0.000000 0.000000 
-101.096191 -49.163574 1120.350952 19.941598 -1.019768 0.532528 0.397033 -0.140712 2.912136 0.199672 0.043848 -0.543864 0.291911 0.003261 0.454435 -0.477922 2.039773 1.765177 0.000000 0.000000 0.000000 1.655571 -0.297972 3.933539 11.693422 -0.017840 -1.901257 -179.231857 37.534472 177.799717 0.000000 0.000000 0.000000 -5.193301 19.951316 -1.872717 -20.239353 4.748796 1.663922 50.825276 -21.685325 115.523605 0.000000 0.000000 0.000000 -11.489737 4.289450 -0.857947 -11.220358 -0.530354 -0.227919 -10.917505 -5.130652 -3.138918 0.000000 0.000000 0.000000 -6.106723 -3.837052 2.367146 -5.981980 7.853446 4.796975 -4.913058 -5.632630 -4.297764 0.000000 0.000000 0.000000 
-101.224884 -49.406857 1120.411011 19.798450 -1.002333 0.545379 0.402988 -0.188225 2.898636 0.203349 0.050100 -0.538497 0.295604 -0.007793 0.449802 -0.469967 2.012657 1.738109 0.000000 0.000000 0.000000 1.677973 -0.232651 3.957395 11.813692 -0.074685 -1.841686 -179.193351 37.620446 177.779582 0.000000 0.000000 0.000000 -5.187209 19.996629 -1.881773 -20.238622 4.793048 1.656352 50.821066 -21.694678 115.551046 0.000000 0.000000 0.000000 -11.446188 4.258051 -0.892758 -11.178872 -0.549383 -0.166007 -10.875108 -5.082463 -3.138075 0.000000 0.000000 0.000000 -6.057336 -3.715099 2.491371 -5.923940 7.572092 4.607356 -4.895209 -5.502291 -4.243089 0.000000 0.000000 0.000000 
-101.342430 -49.644161 1120.467041 19.644227 -0.983260 0.559897 0.404736 -0.240237 2.885115 0.202466 0.055689 -0.535501 0.294997 -0.017958 0.446910 -0.461278 1.984503 1.708044 0.000000 0.000000 0.000000 1.704273 -0.162331 3.981891 11.959184 -0.124903 -1.790991 -179.136404 37.716470 177.756205 0.000000 0.000000 0.000000 -5.179742 20.040842 -1.896219 -20.240743 4.835238 1.656789 50.830045 -21.692904 115.582244 0.000000 0.000000 0.000000 -11.399444 4.226308 -0.931638 -11.134107 -0.571635 -0.099447 -10.829441 -5.032509 -3.136403 0.000000 0.000000 0.000000 -6.002620 -3.573182 2.624917 -5.860275 7.251846 4.400999 -4.876000 -5.356582 -4.182339 0.000000 0.000000 0.000000 
-101.424019 -49.872253 1120.512939 19.484779 -0.965943 0.576887 0.400483 -0.298088 2.868061 0.195495 0.061912 -0.531472 0.288354 -0.030169 0.443985 -0.454441 1.963182 1.682434 0.000000 0.000000 0.000000 1.735525 -0.085174 4.006551 12.130351 -0.165658 -1.749953 -179.058956 37.821020 177.728505 0.000000 0.000000 0.000000 -5.170722 20.085140 -1.915455 -20.245509 4.875148 1.668944 50.854127 -21.673770 115.615470 0.000000 0.000000 0.000000 -11.351676 4.201547 -0.973807 -11.087684 -0.600506 -0.031012 -10.782364 -4.984556 -3.133328 0.000000 0.000000 0.000000 -5.943976 -3.401159 2.769351 -5.792445 6.880884 4.173749 -4.858054 -5.191129 -4.115165 0.000000 0.000000 0.000000 
-101.478996 -50.095776 1120.553955 19.312970 -0.948382 0.595283 0.391377 -0.361960 2.851016 0.183216 0.067947 -0.530025 0.276779 -0.042931 0.443019 -0.447704 1.943620 1.656162 0.000000 0.000000 0.000000 1.773941 -0.000850 4.031727 12.332436 -0.197657 -1.719375 -178.958124 37.937840 177.694778 0.000000 0.000000 0.000000 -5.157965 20.130350 -1.941293 -20.253175 4.913118 1.693745 50.891719 -21.639157 115.651482 0.000000 0.000000 0.000000 -11.300412 4.179865 -1.018550 -11.037364 -0.634694 0.040377 -10.731596 -4.936128 -3.128731 0.000000 0.000000 0.000000 -5.879593 -3.198580 2.928590 -5.718250 6.454866 3.921520 -4.839613 -5.001765 -4.039263 0.000000 0.000000 0.000000 
-101.545891 -50.303082 1120.578979 19.156214 -0.929923 0.612219 0.374444 -0.424302 2.837390 0.163183 0.072569 -0.529689 0.257498 -0.055607 0.442649 -0.442720 1.930567 1.634424 0.000000 0.000000 0.000000 1.806591 0.082129 4.056096 12.528333 -0.225832 -1.694082 -178.860553 38.049366 177.670892 0.000000 0.000000 0.000000 -5.151299 20.169495 -1.968116 -20.270370 4.946389 1.717751 50.936835 -21.597161 115.696204 0.000000 0.000000 0.000000 -11.254905 4.159754 -1.065932 -10.992409 -0.670523 0.118272 -10.685870 -4.886388 -3.126896 0.000000 0.000000 0.000000 -5.819005 -3.011436 3.073557 -5.648827 6.055539 3.692771 -4.821096 -4.824035 -3.967433 0.000000 0.000000 0.000000 
-101.638016 -50.493412 1120.583008 19.031907 -0.907815 0.625965 0.346913 -0.486302 2.827244 0.132569 0.076403 -0.531242 0.227798 -0.066671 0.443981 -0.440392 1.925793 1.620863 0.000000 0.000000 0.000000 1.825133 0.157599 4.081819 12.695109 -0.254073 -1.672212 -178.784594 38.142714 177.663166 0.000000 0.000000 0.000000 -5.161321 20.199251 -1.992396 -20.305294 4.973980 1.734783 50.984271 -21.551641 115.758078 0.000000 0.000000 0.000000 -11.220850 4.139224 -1.114236 -10.958546 -0.707407 0.204383 -10.650706 -4.834524 -3.130660 0.000000 0.000000 0.000000 -5.769097 -2.866510 3.188015 -5.592270 5.725787 3.517392 -4.805232 -4.679414 -3.908569 0.000000 0.000000 0.000000 
-101.741211 -50.672451 1120.567993 18.930361 -0.883761 0.637736 0.309207 -0.546611 2.818064 0.092035 0.076917 -0.533545 0.188127 -0.077007 0.446660 -0.440331 1.928646 1.613848 0.000000 0.000000 0.000000 1.836903 0.229739 4.109205 12.847293 -0.279617 -1.655135 -178.719110 38.226125 177.667068 0.000000 0.000000 0.000000 -5.182693 20.222540 -2.015685 -20.355209 4.997296 1.749688 51.035918 -21.499010 115.834214 0.000000 0.000000 0.000000 -11.195058 4.120567 -1.163862 -10.932530 -0.747132 0.297582 -10.623069 -4.780876 -3.138523 0.000000 0.000000 0.000000 -5.726308 -2.744862 3.283423 -5.544367 5.434460 3.375849 -4.791996 -4.556303 -3.858551 0.000000 0.000000 0.000000 
-101.907616 -50.802479 1120.536987 18.848312 -0.863031 0.650896 0.269466 -0.592025 2.816681 0.049977 0.073646 -0.535904 0.146570 -0.081610 0.450742 -0.441677 1.939964 1.609723 0.000000 0.000000 0.000000 1.828876 0.295855 4.123425 12.973862 -0.304973 -1.639869 -178.669567 38.297761 177.687761 0.000000 0.000000 0.000000 -5.208263 20.231857 -2.045513 -20.411249 5.009190 1.761581 51.091745 -21.443515 115.913185 0.000000 0.000000 0.000000 -11.177535 4.101084 -1.227165 -10.914899 -0.780284 0.402305 -10.602757 -4.725433 -3.150371 0.000000 0.000000 0.000000 -5.689390 -2.670612 3.340780 -5.504653 5.234549 3.284764 -4.775827 -4.467928 -3.819498 0.000000 0.000000 0.000000 
-102.194115 -50.847595 1120.488037 18.790627 -0.845855 0.670093 0.231024 -0.610093 2.826439 0.010355 0.060099 -0.537773 0.106091 -0.072865 0.452974 -0.443026 1.958567 1.604709 0.000000 0.000000 0.000000 1.814598 0.346222 4.125024 13.071772 -0.319159 -1.642716 -178.633005 38.354253 177.711000 0.000000 0.000000 0.000000 -5.261124 20.233587 -2.097179 -20.536778 4.991829 1.829100 51.097596 -21.359288 116.044662 0.000000 0.000000 0.000000 -11.171854 4.076831 -1.321644 -10.909527 -0.803737 0.533121 -10.592729 -4.662855 -3.169565 0.000000 0.000000 0.000000 -5.659801 -2.674493 3.337015 -5.475769 5.179398 3.266500 -4.753987 -4.430553 -3.795918 0.000000 0.000000 0.000000 
-102.580734 -50.823662 1120.418945 18.757066 -0.829812 0.695114 0.191362 -0.606598 2.840477 -0.029094 0.037755 -0.535365 0.064298 -0.053542 0.453067 -0.444423 1.983246 1.599213 0.000000 0.000000 0.000000 1.797222 0.382292 4.119284 13.146413 -0.321916 -1.665869 -178.607137 38.395215 177.731458 0.000000 0.000000 0.000000 -5.344725 20.229929 -2.168168 -20.735761 4.948302 1.954104 51.051357 -21.241766 116.232353 0.000000 0.000000 0.000000 -11.177513 4.047883 -1.443553 -10.915783 -0.820641 0.688089 -10.592631 -4.594100 -3.195603 0.000000 0.000000 0.000000 -5.637431 -2.747186 3.278640 -5.457385 5.247372 3.314631 -4.728442 -4.438621 -3.786750 0.000000 0.000000 0.000000 
-102.965874 -50.767002 1120.349976 18.724148 -0.835504 0.711505 0.155843 -0.585184 2.879275 -0.065520 0.019882 -0.540448 0.026960 -0.034316 0.459705 -0.451239 2.026058 1.604441 0.000000 0.000000 0.000000 1.692693 0.436317 4.066357 13.173567 -0.364897 -1.626122 -178.623438 38.439979 177.843456 0.000000 0.000000 0.000000 -5.330367 20.172920 -2.207712 -20.695471 4.936171 1.867632 51.203738 -21.231411 116.222130 0.000000 0.000000 0.000000 -11.181979 4.033694 -1.550486 -10.920730 -0.820960 0.819552 -10.591536 -4.534866 -3.217462 0.000000 0.000000 0.000000 -5.615748 -2.821213 3.214337 -5.439878 5.367478 3.379343 -4.697691 -4.470110 -3.783546 0.000000 0.000000 0.000000 
-103.255783 -50.650368 1120.281006 18.664648 -0.887038 0.707213 0.131461 -0.553355 2.958189 -0.094162 0.021298 -0.560341 0.001120 -0.026055 0.478352 -0.468393 2.101239 1.631633 0.000000 0.000000 0.000000 1.453640 0.492795 3.956582 13.101646 -0.497748 -1.516685 -178.750717 38.379204 177.962496 0.000000 0.000000 0.000000 -5.165810 20.102616 -2.214259 -20.485186 4.940227 1.621997 51.428257 -21.276408 116.022822 0.000000 0.000000 0.000000 -11.172594 4.062329 -1.614223 -10.910444 -0.802229 0.891807 -10.577235 -4.502538 -3.222878 0.000000 0.000000 0.000000 -5.585636 -2.839082 3.170057 -5.413251 5.499193 3.436827 -4.655881 -4.517215 -3.780924 0.000000 0.000000 0.000000 
-103.488518 -50.458984 1120.206055 18.588462 -0.976734 0.687332 0.116025 -0.509089 3.070380 -0.116203 0.034228 -0.591108 -0.015789 -0.021783 0.505402 -0.494212 2.204862 1.676892 0.000000 0.000000 0.000000 1.112688 0.537410 3.806495 12.938258 -0.700315 -1.369591 -178.978842 38.204533 178.055524 0.000000 0.000000 0.000000 -4.903548 20.040668 -2.208178 -20.232507 4.937477 1.328056 51.620932 -21.316322 115.735774 0.000000 0.000000 0.000000 -11.154458 4.126678 -1.650192 -10.890140 -0.768276 0.922587 -10.554183 -4.490919 -3.216262 0.000000 0.000000 0.000000 -5.550182 -2.826378 3.127674 -5.381763 5.669605 3.506482 -4.604064 -4.587676 -3.782091 0.000000 0.000000 0.000000 
-103.780327 -50.425877 1120.171997 18.542443 -1.057549 0.664370 0.095391 -0.431854 3.202101 -0.142671 0.045265 -0.621991 -0.036687 -0.018619 0.534662 -0.521755 2.305103 1.714931 0.000000 0.000000 0.000000 0.624366 0.747649 3.535046 12.882229 -0.890510 -0.972140 -179.050381 38.500332 178.768323 0.000000 0.000000 0.000000 -4.389007 19.682066 -2.045700 -18.658610 5.207998 -0.046503 53.088555 -21.949307 114.464980 0.000000 0.000000 0.000000 -11.144674 4.159926 -1.661248 -10.881437 -0.703106 0.931902 -10.542128 -4.473537 -3.216976 0.000000 0.000000 0.000000 -5.527699 -2.840159 3.115077 -5.358780 5.849781 3.543978 -4.561282 -4.652266 -3.785203 0.000000 0.000000 0.000000 
